<svg width="75" height="75" viewBox="0 0 75 75" fill="none" xmlns="http://www.w3.org/2000/svg">
<path d="M11.7452 17.3442C13.1617 17.3442 14.1969 17.4499 14.8509 17.6612C15.144 17.7401 15.4167 17.8812 15.6505 18.0748C15.8843 18.2683 16.0737 18.51 16.2059 18.7832C16.4552 19.3252 16.5799 20.1689 16.5799 21.3144V30.7994H20.8346V21.4282C20.8346 20.2791 20.9494 19.4264 21.1788 18.8699C21.303 18.5851 21.489 18.3316 21.7234 18.1277C21.9578 17.9238 22.2346 17.7746 22.5338 17.691C23.2023 17.4598 24.2267 17.3442 25.607 17.3442C25.6856 17.3442 25.7235 17.2303 25.7235 17C25.7235 16.7696 25.6856 16.6531 25.607 16.6531L22.8455 16.7127C21.1599 16.7886 19.7606 16.8265 18.6477 16.8265C17.6124 16.8265 16.289 16.7886 14.6775 16.7127L11.7452 16.6531C11.6287 16.6531 11.5718 16.7696 11.5718 17C11.5718 17.2303 11.6287 17.3442 11.7452 17.3442Z" fill="#2B2B2B"/>
<path d="M25.607 51.916C24.1906 51.916 23.1554 51.8202 22.5013 51.6287C22.2123 51.562 21.9426 51.4295 21.7133 51.2415C21.4839 51.0534 21.301 50.815 21.1788 50.5447C20.9476 50.0027 20.8329 49.14 20.8347 47.9566V40.7534H16.5772V47.9458C16.5772 49.0985 16.4526 49.9521 16.2032 50.5068C16.077 50.7841 15.8895 51.0292 15.6547 51.2236C15.42 51.4179 15.1443 51.5564 14.8482 51.6287C14.196 51.8202 13.1608 51.916 11.7425 51.916C11.626 51.916 11.5691 52.0298 11.5691 52.2602C11.5691 52.4905 11.626 52.607 11.7425 52.607C12.9702 52.607 13.9458 52.5881 14.6748 52.5474L18.645 52.4905L22.7859 52.5474C23.476 52.5872 24.4155 52.607 25.6043 52.607C25.6829 52.607 25.7209 52.4905 25.7209 52.2602C25.7209 52.0298 25.6856 51.916 25.607 51.916Z" fill="#2B2B2B"/>
<path d="M42.8754 30.794L46.6044 22.1219L50.7616 30.794H55.5068L48.5095 16.1951C48.4716 16.0786 48.3388 16.0217 48.1084 16.0217C48.0233 16.0098 47.9365 16.0195 47.856 16.0498C47.7755 16.0801 47.7039 16.13 47.6477 16.1951L41.4147 30.794H42.8754Z" fill="#2B2B2B"/>
<path d="M68.6911 51.916C67.5041 51.916 66.4499 51.4173 65.5285 50.42C64.6071 49.4228 63.495 47.5257 62.1924 44.729L60.2954 40.7561H55.5258L58.8076 47.6016C59.3496 48.7507 59.6206 49.6134 59.6206 50.1897C59.638 50.4815 59.5606 50.7711 59.4 51.0153C59.2393 51.2596 59.0039 51.4452 58.729 51.5447C58.1328 51.794 57.1454 51.9187 55.7669 51.9187C55.6125 51.9187 55.5366 52.0325 55.5366 52.2629C55.5366 52.4932 55.6125 52.6097 55.7669 52.6097C56.4553 52.6097 57.4137 52.5709 58.6423 52.4932C59.9449 52.4173 61.038 52.3794 61.9214 52.3794C62.6441 52.3794 63.7751 52.4173 65.3144 52.4932C66.8537 52.5691 67.9846 52.6079 68.7073 52.6097C68.8618 52.6097 68.9377 52.4932 68.9377 52.2629C68.9377 52.0325 68.8347 51.916 68.6911 51.916Z" fill="#2B2B2B"/>
<path d="M41.542 51.916C37.822 51.916 35.9621 50.7082 35.9621 48.2927C35.9932 47.1976 36.2477 46.1205 36.71 45.1274L38.5935 40.7534H37.1491L35.5014 44.6098C34.8714 46.1902 34.1014 47.7111 33.2005 49.1545C32.5086 50.1897 31.7859 50.9124 31.0325 51.3225C30.1864 51.7481 29.2475 51.9558 28.3008 51.9268C28.1084 51.9268 28.0135 52.0406 28.0135 52.271C28.0135 52.5014 28.1084 52.6179 28.3008 52.6179C29.1048 52.6179 30.0822 52.579 31.2331 52.5013C32.6152 52.4255 33.7895 52.3875 34.7561 52.3875C35.8293 52.3875 37.094 52.4255 38.5501 52.5013C39.8546 52.5808 40.8482 52.6197 41.5312 52.6179C41.7236 52.6179 41.8184 52.5014 41.8184 52.271C41.8184 52.0406 41.7344 51.916 41.542 51.916Z" fill="#2B2B2B"/>
<path d="M37.4986 2.31436C30.5392 2.31436 23.736 4.37811 17.9495 8.24463C12.163 12.1111 7.65298 17.6068 4.98984 24.0365C2.3267 30.4662 1.63004 37.5413 2.98796 44.367C4.34588 51.1927 7.69738 57.4624 12.6186 62.3833C17.5399 67.3042 23.8099 70.6552 30.6357 72.0126C37.4615 73.37 44.5365 72.6728 50.966 70.0091C57.3955 67.3455 62.8908 62.8351 66.7569 57.0482C70.6229 51.2614 72.6862 44.4581 72.6856 37.4986C72.6856 18.0542 56.8293 2.31436 37.4986 2.31436ZM37.4986 75C16.7832 75 0 58.103 0 37.4986C0 16.8943 16.7832 8.81635e-07 37.4986 8.81635e-07C42.4235 -0.00106707 47.3002 0.968115 51.8504 2.85219C56.4006 4.73626 60.535 7.49831 64.0175 10.9806C67.5 14.4628 70.2624 18.597 72.1468 23.1471C74.0312 27.6971 75.0007 32.5738 75 37.4986C75 58.2168 58.103 75 37.4986 75Z" fill="black"/>
<path d="M11.9241 37.7696C11.707 37.9083 11.4554 37.9834 11.1978 37.9864C10.9226 37.9828 10.6565 37.8874 10.4417 37.7154C10.4146 37.7001 10.393 37.6768 10.3799 37.6486C10.3668 37.6204 10.3628 37.5888 10.3685 37.5583C10.3713 37.5282 10.3822 37.4995 10.3999 37.4751C10.4177 37.4507 10.4417 37.4315 10.4694 37.4196C10.4972 37.4076 10.5276 37.4034 10.5575 37.4073C10.5874 37.4112 10.6158 37.4231 10.6395 37.4417C10.7924 37.5681 10.9832 37.6396 11.1815 37.645C11.3812 37.6501 11.5771 37.5902 11.7398 37.4743C12.1585 37.2034 12.5113 36.8423 12.7723 36.4173C13.1145 35.9072 13.4016 35.3621 13.6287 34.7913C13.8625 34.207 14.0439 33.603 14.1707 32.9864C14.2859 32.4737 14.3243 31.9467 14.2845 31.4228C14.2195 30.9024 14.0379 30.6097 13.7425 30.5095C13.2857 30.4199 12.8124 30.4738 12.3875 30.664C11.9032 30.8188 11.4578 31.0757 11.0812 31.4173C10.897 31.5989 10.8102 31.7425 10.8509 31.8482C10.8915 31.9539 11.0108 32.0217 11.2493 32.0813C11.2941 32.0927 11.3329 32.1208 11.3577 32.1599C11.3693 32.1787 11.377 32.1997 11.3803 32.2216C11.3836 32.2435 11.3823 32.2659 11.3766 32.2873C11.3657 32.3323 11.3375 32.3713 11.2981 32.3957C11.2788 32.4086 11.2568 32.417 11.2338 32.4203C11.2108 32.4236 11.1874 32.4217 11.1653 32.4146C10.794 32.3225 10.5799 32.1626 10.5176 31.9322C10.4552 31.7019 10.5691 31.4363 10.8536 31.1653C11.2727 30.7813 11.7702 30.4928 12.3116 30.3198C12.7957 30.111 13.3333 30.0598 13.8482 30.1734C14.2872 30.3035 14.5483 30.7037 14.6314 31.374C14.6768 31.9285 14.6384 32.4867 14.5176 33.0298C14.3875 33.6779 14.1988 34.3129 13.9539 34.9268C13.7114 35.5314 13.4033 36.1076 13.0352 36.645C12.752 37.097 12.3727 37.481 11.9241 37.7696V37.7696Z" fill="#2B2B2B"/>
<path d="M18.4092 36.0948C18.4313 36.0945 18.4534 36.0986 18.4739 36.1069C18.4945 36.1152 18.5131 36.1276 18.5288 36.1432C18.5445 36.1589 18.5568 36.1776 18.5652 36.1981C18.5735 36.2187 18.5776 36.2407 18.5772 36.2629C18.5781 36.2857 18.5745 36.3084 18.5666 36.3298C18.5587 36.3512 18.5466 36.3708 18.5311 36.3875C18.1022 36.8013 17.603 37.1353 17.0569 37.374C16.528 37.6334 15.9493 37.7758 15.3604 37.7913C15.2516 37.7911 15.143 37.7839 15.0352 37.7696C14.8223 37.7539 14.6165 37.6864 14.4356 37.573C14.2548 37.4597 14.1043 37.3039 13.9972 37.1192C13.9759 37.0814 13.9701 37.0367 13.981 36.9946C13.9916 36.9508 14.0188 36.9129 14.0569 36.8889C14.0757 36.877 14.0967 36.8689 14.1186 36.8652C14.1406 36.8615 14.1631 36.8622 14.1847 36.8672C14.2064 36.8723 14.2269 36.8816 14.2449 36.8946C14.263 36.9076 14.2783 36.9241 14.2899 36.9431C14.4274 37.1294 14.6293 37.2579 14.8563 37.3035C15.0815 37.3552 15.3179 37.3193 15.5176 37.2032C15.5613 37.1799 15.599 37.1467 15.6277 37.1062C15.6564 37.0658 15.6753 37.0192 15.6829 36.9702C15.6939 36.9218 15.6922 36.8715 15.6779 36.824C15.6637 36.7765 15.6374 36.7335 15.6016 36.6992C15.5281 36.6223 15.4453 36.5549 15.355 36.4986C15.1779 36.3919 15.0248 36.2498 14.9051 36.0813C14.8976 36.0666 14.8864 36.0542 14.8726 36.0451C14.8589 36.0361 14.843 36.0308 14.8265 36.0298C14.8116 36.0266 14.7961 36.0271 14.7814 36.0314C14.7668 36.0357 14.7534 36.0435 14.7425 36.0542L14.2466 36.5257C14.2244 36.5464 14.1972 36.5608 14.1677 36.5675C14.1382 36.5741 14.1074 36.5728 14.0785 36.5637C14.0482 36.5573 14.0204 36.542 13.9987 36.5198C13.977 36.4976 13.9623 36.4695 13.9566 36.439C13.9481 36.4088 13.9488 36.3767 13.9584 36.3469C13.968 36.317 13.9863 36.2906 14.0108 36.271L15.0108 35.3306C15.121 35.1922 15.2475 35.0676 15.3875 34.9593C15.4223 34.9351 15.4644 34.9236 15.5067 34.9268C15.5516 34.9315 15.5932 34.9528 15.6233 34.9864C15.6379 35.0029 15.6489 35.0223 15.6554 35.0433C15.662 35.0644 15.6639 35.0865 15.6612 35.1084C15.6572 35.151 15.6391 35.1911 15.6097 35.2222L15.2493 35.5556C15.1944 35.619 15.1629 35.6993 15.1598 35.7832C15.1617 35.8214 15.1715 35.8587 15.1888 35.8928C15.2061 35.9269 15.2304 35.957 15.2601 35.981C15.3511 36.063 15.448 36.1382 15.5501 36.206C15.6836 36.2836 15.8012 36.3856 15.897 36.5068C15.9696 36.61 16.0136 36.7306 16.0243 36.8564C16.0349 36.9814 16.0086 37.1067 15.9485 37.2168C15.9388 37.2317 15.9336 37.2491 15.9336 37.2669C15.9336 37.2847 15.9388 37.3021 15.9485 37.3171C15.959 37.3316 15.9737 37.3426 15.9907 37.3484C16.0077 37.3543 16.0261 37.3547 16.0433 37.3496C16.8829 37.1498 17.6543 36.7308 18.2791 36.1355C18.2961 36.119 18.3167 36.1068 18.3393 36.0997C18.3619 36.0927 18.3858 36.091 18.4092 36.0948Z" fill="#2B2B2B"/>
<path d="M22.6233 36.0948C22.6454 36.0945 22.6674 36.0986 22.688 36.1069C22.7085 36.1152 22.7272 36.1276 22.7429 36.1432C22.7586 36.1589 22.7709 36.1776 22.7792 36.1981C22.7876 36.2187 22.7917 36.2407 22.7913 36.2629C22.7922 36.2857 22.7886 36.3084 22.7807 36.3298C22.7728 36.3512 22.7607 36.3708 22.7452 36.3875C22.3163 36.8013 21.817 37.1353 21.271 37.374C20.742 37.6334 20.1634 37.7758 19.5745 37.7913C19.4657 37.7911 19.3571 37.7839 19.2493 37.7696C19.0372 37.7547 18.8319 37.6885 18.651 37.5766C18.4702 37.4647 18.3193 37.3105 18.2113 37.1274C18.19 37.0895 18.1842 37.0448 18.1951 37.0027C18.2057 36.959 18.2329 36.9211 18.271 36.897C18.2898 36.8851 18.3108 36.8771 18.3327 36.8734C18.3547 36.8696 18.3771 36.8703 18.3988 36.8754C18.4205 36.8804 18.441 36.8897 18.459 36.9027C18.4771 36.9158 18.4924 36.9322 18.504 36.9512C18.6415 37.1375 18.8434 37.266 19.0704 37.3117C19.2956 37.3633 19.5319 37.3275 19.7317 37.2114C19.7754 37.188 19.8131 37.1548 19.8418 37.1143C19.8705 37.0739 19.8894 37.0273 19.897 36.9783C19.908 36.93 19.9063 36.8796 19.892 36.8321C19.8778 36.7846 19.8515 36.7416 19.8157 36.7073C19.7422 36.6304 19.6594 36.563 19.5691 36.5068C19.3896 36.4002 19.2338 36.2582 19.1111 36.0894C19.1036 36.0748 19.0924 36.0623 19.0786 36.0533C19.0648 36.0442 19.0489 36.039 19.0325 36.0379C19.0176 36.0347 19.0021 36.0353 18.9874 36.0395C18.9727 36.0438 18.9594 36.0516 18.9485 36.0623L18.4525 36.5339C18.4304 36.5545 18.4032 36.5689 18.3737 36.5756C18.3441 36.5823 18.3134 36.581 18.2845 36.5718C18.2543 36.5651 18.2267 36.5497 18.205 36.5276C18.1834 36.5054 18.1686 36.4775 18.1626 36.4472C18.154 36.4167 18.1549 36.3843 18.165 36.3543C18.1752 36.3244 18.1942 36.2981 18.2195 36.2791L19.2168 35.3387C19.329 35.197 19.4582 35.0696 19.6016 34.9593C19.6373 34.9349 19.6804 34.9234 19.7235 34.9268C19.7675 34.9322 19.808 34.9534 19.8374 34.9864C19.852 35.0029 19.863 35.0223 19.8695 35.0433C19.8761 35.0643 19.878 35.0865 19.8753 35.1084C19.8713 35.151 19.8532 35.1911 19.8238 35.2222L19.4634 35.5555C19.4085 35.619 19.377 35.6993 19.3739 35.7832C19.3758 35.8214 19.3856 35.8587 19.4029 35.8928C19.4202 35.9269 19.4445 35.957 19.4742 35.981C19.5652 36.063 19.6621 36.1382 19.7642 36.206C19.8977 36.2836 20.0153 36.3856 20.1111 36.5068C20.1837 36.61 20.2277 36.7306 20.2384 36.8564C20.2504 36.9814 20.2239 37.1072 20.1626 37.2168C20.1529 37.2317 20.1477 37.2491 20.1477 37.2669C20.1477 37.2847 20.1529 37.3021 20.1626 37.3171C20.1731 37.3316 20.1878 37.3426 20.2048 37.3484C20.2218 37.3543 20.2402 37.3547 20.2574 37.3496C21.0958 37.1529 21.8672 36.7377 22.4932 36.1463C22.5091 36.128 22.5293 36.1137 22.5519 36.1047C22.5746 36.0957 22.599 36.0924 22.6233 36.0948Z" fill="#2B2B2B"/>
<path d="M27.8157 36.3144C27.8381 36.315 27.86 36.3204 27.8801 36.3302C27.9002 36.34 27.918 36.354 27.9322 36.3713C27.9472 36.3877 27.9587 36.407 27.9661 36.4279C27.9736 36.4488 27.9768 36.471 27.9756 36.4932C27.975 36.516 27.9696 36.5383 27.9598 36.5589C27.95 36.5794 27.936 36.5977 27.9187 36.6125L27.7669 36.7453C27.7046 36.7995 27.5881 36.8889 27.4227 37.0163C27.0828 37.2696 26.7133 37.4807 26.3225 37.645C26.1081 37.7368 25.8846 37.8058 25.6558 37.8509C25.4332 37.8863 25.2063 37.8863 24.9837 37.8509C24.7541 37.8205 24.5339 37.74 24.3387 37.6152C24.1578 37.4999 24.0072 37.3428 23.8997 37.1572C23.8862 37.1322 23.8663 37.1112 23.842 37.0964C23.8177 37.0816 23.7899 37.0736 23.7615 37.0732C23.7325 37.0696 23.7032 37.0744 23.6768 37.0868C23.6504 37.0993 23.6281 37.119 23.6124 37.1436C23.4745 37.3636 23.3067 37.5633 23.1138 37.7371C22.9822 37.8764 22.8056 37.9647 22.6152 37.9864V37.9864C22.5365 37.9814 22.4606 37.9552 22.3956 37.9106C22.3299 37.8671 22.2789 37.8047 22.2493 37.7317C22.1853 37.5789 22.1571 37.4135 22.167 37.2481C22.1768 37.0828 22.2245 36.9219 22.3062 36.7778C22.4491 36.481 22.6554 36.2191 22.9105 36.0108C23.1674 35.8029 23.4673 35.6548 23.7886 35.5772C23.8179 35.5697 23.8486 35.5702 23.8776 35.5784C23.9067 35.5867 23.933 35.6025 23.954 35.6243C23.9749 35.646 23.9897 35.673 23.9968 35.7023C24.004 35.7317 24.0032 35.7624 23.9946 35.7913C23.9863 35.821 23.97 35.8477 23.9476 35.8688C23.9251 35.8898 23.8973 35.9043 23.8672 35.9106C23.5971 35.9741 23.345 36.0982 23.1301 36.2737C22.914 36.4488 22.7399 36.6702 22.6206 36.9214C22.561 37.0182 22.5242 37.1273 22.5129 37.2405C22.5016 37.3536 22.5162 37.4678 22.5555 37.5745C22.5826 37.6179 22.6016 37.6396 22.6152 37.6396C22.6883 37.6883 22.832 37.5528 23.0433 37.2358C23.2636 36.9084 23.4558 36.563 23.6179 36.2032C23.6337 36.1698 23.6598 36.1423 23.6923 36.1248C23.7248 36.1072 23.7621 36.1005 23.7988 36.1057C23.8354 36.1108 23.8694 36.1275 23.8958 36.1534C23.9223 36.1792 23.9398 36.2128 23.9458 36.2493C23.9458 36.271 23.9512 36.3008 23.962 36.3387C23.976 36.4066 23.9941 36.4736 24.0162 36.5393C24.0448 36.6321 24.0801 36.7227 24.1219 36.8103C24.1676 36.9066 24.224 36.9975 24.2899 37.0813C24.357 37.1717 24.4385 37.2505 24.5311 37.3144C24.6988 37.4234 24.8903 37.4904 25.0894 37.5095C25.2877 37.5318 25.4883 37.5208 25.6829 37.477C25.889 37.4286 26.0896 37.3596 26.2818 37.271C26.4692 37.1896 26.6504 37.0945 26.8238 36.9864C26.9756 36.8916 27.1246 36.7886 27.2737 36.6802L27.5772 36.4499C27.6314 36.4038 27.6721 36.3658 27.6965 36.3415C27.7315 36.318 27.774 36.3084 27.8157 36.3144V36.3144Z" fill="#2B2B2B"/>
<path d="M38.5989 35.9756C37.7642 37.2403 36.9376 37.8726 36.1192 37.8726C35.5818 37.8576 35.0521 37.7408 34.5582 37.5284C33.986 37.3033 33.4407 37.0152 32.9322 36.6694C32.4494 36.3407 31.9961 35.9707 31.5772 35.5637C31.2311 35.2477 30.9334 34.8824 30.6937 34.4797C30.4607 34.0533 30.4282 33.71 30.5962 33.4499C30.8021 33.1355 31.2656 33.0081 31.9946 33.065C32.4896 33.1066 32.9812 33.1817 33.4661 33.29C34.0081 33.4038 34.5501 33.561 35.1517 33.7398C35.7534 33.9187 36.2845 34.1057 36.7778 34.2818C37.271 34.458 37.8292 34.6667 38.4553 34.9051C38.5421 34.9404 38.6394 34.9404 38.7263 34.9051C38.8146 34.8701 38.8876 34.8047 38.9322 34.7209C39.1129 34.3595 39.2981 33.9666 39.4878 33.542C40.0574 32.2165 40.5364 30.8538 40.9214 29.4634C40.9285 29.4276 40.9483 29.3955 40.9772 29.3731C41.0061 29.3507 41.0421 29.3394 41.0786 29.3415C41.1144 29.334 41.1518 29.3404 41.183 29.3596C41.2143 29.3787 41.237 29.4091 41.2466 29.4444C41.2907 29.6217 41.3116 29.8038 41.3089 29.9864C41.3089 30.2737 41.3279 30.7994 41.3333 31.5799C41.3333 33.477 41.3875 34.8916 41.4553 35.7967C41.46 35.8709 41.4875 35.9419 41.5338 36C41.5813 36.0598 41.6454 36.1041 41.7181 36.1274C42.2103 36.324 42.7292 36.4455 43.2574 36.4878C43.3015 36.4896 43.3434 36.5074 43.3753 36.5378C43.4072 36.5682 43.427 36.6092 43.4309 36.6531C43.4322 36.6755 43.4288 36.698 43.4208 36.719C43.4129 36.74 43.4006 36.7591 43.3848 36.7751C43.3694 36.792 43.3506 36.8054 43.3295 36.8143C43.3084 36.8232 43.2857 36.8274 43.2628 36.8266C42.7871 36.8056 42.3177 36.7086 41.8726 36.5393C41.8342 36.5264 41.793 36.5241 41.7534 36.5327C41.7138 36.5413 41.6773 36.5604 41.6477 36.5881C41.6166 36.6147 41.5928 36.6489 41.5786 36.6873C41.5644 36.7257 41.5602 36.7671 41.5664 36.8076C41.6422 37.2385 41.729 37.4715 41.8374 37.5122C41.8797 37.5278 41.9145 37.5587 41.9349 37.5989C41.9435 37.619 41.9479 37.6407 41.9479 37.6626C41.9479 37.6845 41.9435 37.7061 41.9349 37.7263C41.9201 37.769 41.8889 37.8041 41.8482 37.8238C41.8283 37.8333 41.8065 37.8381 41.7845 37.8381C41.7625 37.8381 41.7407 37.8333 41.7208 37.8238C41.4679 37.7425 41.2872 37.3035 41.1788 36.5068C41.1713 36.4377 41.1436 36.3724 41.0993 36.319C41.055 36.2655 40.9959 36.2262 40.9295 36.206C40.5917 36.0813 40.1201 35.9006 39.5149 35.664L39.3631 35.6287L39.2276 35.5989L39.1138 35.5826C39.077 35.577 39.0395 35.577 39.0027 35.5826L38.9051 35.6152C38.8656 35.629 38.8296 35.6512 38.7994 35.6802C38.7723 35.71 38.7398 35.7453 38.7019 35.7913C38.6625 35.8498 38.628 35.9114 38.5989 35.9756ZM31.6829 33.3984C31.2574 33.3984 30.9918 33.4797 30.8862 33.6396C30.7805 33.7994 30.8292 34.0163 30.9973 34.3252C31.2321 34.7242 31.5274 35.0844 31.8726 35.3929C32.2836 35.7793 32.7279 36.1284 33.2005 36.4363C33.6786 36.7496 34.187 37.0138 34.7181 37.2249C35.1612 37.4175 35.6364 37.5251 36.1192 37.542C36.8419 37.542 37.5862 36.9377 38.3523 35.729C38.384 35.6823 38.4043 35.6287 38.4113 35.5726C38.4184 35.5166 38.4121 35.4596 38.3929 35.4065C38.3774 35.3516 38.3488 35.3013 38.3096 35.2597C38.2705 35.2182 38.2219 35.1868 38.168 35.168C36.8871 34.6748 35.7344 34.2746 34.71 33.9675C33.819 33.6883 32.9003 33.5066 31.9702 33.4255C31.8699 33.4038 31.775 33.3984 31.6829 33.3984V33.3984ZM40.8509 30.8943C40.3912 32.362 39.8017 33.7859 39.0894 35.149L39.3604 35.252C39.9647 35.4878 40.4038 35.6558 40.6721 35.7561C40.7203 35.7755 40.7728 35.7817 40.8243 35.7741C40.8757 35.7665 40.9242 35.7453 40.9647 35.7127C41.0081 35.6831 41.0426 35.6422 41.0646 35.5945C41.0865 35.5468 41.0951 35.494 41.0894 35.4417C41.037 34.6016 41.0045 33.3162 40.9918 31.5854C40.9918 31.2845 40.9918 31.065 40.9918 30.9268C40.995 30.8908 40.9865 30.8546 40.9675 30.8238C40.9655 30.8191 40.9625 30.8148 40.9587 30.8113C40.9549 30.8079 40.9504 30.8052 40.9455 30.8037C40.9406 30.8021 40.9354 30.8017 40.9303 30.8024C40.9252 30.803 40.9203 30.8048 40.916 30.8076C40.8998 30.8169 40.8858 30.8294 40.8746 30.8443C40.8634 30.8592 40.8554 30.8762 40.8509 30.8943V30.8943Z" fill="#2B2B2B"/>
<path d="M49.1544 36.2656C49.1771 36.2667 49.1993 36.2722 49.2198 36.282C49.2403 36.2918 49.2586 36.3055 49.2737 36.3225C49.2897 36.3388 49.3021 36.3584 49.31 36.3799C49.318 36.4014 49.3213 36.4243 49.3198 36.4471C49.319 36.47 49.313 36.4925 49.3022 36.5127C49.2914 36.5329 49.2761 36.5503 49.2574 36.5637C48.7301 37.0062 48.1293 37.3529 47.4824 37.5881C46.8347 37.8261 46.1507 37.9499 45.4607 37.9539C45.1216 37.9544 44.7832 37.9236 44.4498 37.8618C44.2781 37.8339 44.1111 37.7819 43.9539 37.7073C43.8384 37.6565 43.7364 37.5795 43.6558 37.4824C43.6006 37.4129 43.5567 37.3352 43.5257 37.252C43.502 37.1813 43.4901 37.1071 43.4905 37.0325C43.5002 36.7878 43.5854 36.5521 43.7344 36.3577C43.8918 36.1299 44.0892 35.9324 44.317 35.775C44.5021 35.636 44.7131 35.5356 44.9376 35.4797C45.0595 35.4418 45.1888 35.4346 45.3141 35.4587C45.4393 35.4828 45.5567 35.5375 45.6558 35.6179C45.7436 35.6964 45.8133 35.793 45.8601 35.9011C45.9069 36.0092 45.9297 36.1261 45.9268 36.2439C45.9237 36.2889 45.9045 36.3312 45.8726 36.3631C45.8569 36.3797 45.838 36.3929 45.817 36.4019C45.7961 36.4109 45.7735 36.4156 45.7507 36.4156C45.7278 36.4156 45.7052 36.4109 45.6843 36.4019C45.6633 36.3929 45.6444 36.3797 45.6287 36.3631C45.5971 36.3304 45.5796 36.2866 45.5799 36.2412C45.5835 36.1743 45.5724 36.1074 45.5476 36.0452C45.5228 35.983 45.4849 35.9269 45.4363 35.8807C45.3742 35.8388 45.3033 35.8115 45.2291 35.8012C45.1549 35.7909 45.0793 35.7977 45.0081 35.8211C44.7108 35.8989 44.4436 36.0641 44.2412 36.2954C44.0133 36.479 43.8664 36.7446 43.832 37.0352C43.832 37.2845 44.0623 37.4498 44.5095 37.5311C44.7887 37.5804 45.0715 37.6067 45.355 37.6097C45.6167 37.6164 45.8786 37.6028 46.1382 37.5691C46.3762 37.5344 46.6123 37.4874 46.8455 37.4282C47.0589 37.3729 47.2689 37.3051 47.4742 37.2249C47.6558 37.1517 47.832 37.0704 48.0162 36.981C48.2005 36.8916 48.3306 36.813 48.4471 36.7425C48.5637 36.6721 48.6694 36.6016 48.7696 36.5284L48.9729 36.374L49.0433 36.3116C49.0742 36.2843 49.1133 36.2681 49.1544 36.2656Z" fill="#2B2B2B"/>
<path d="M53.3551 36.1274C53.4014 36.1266 53.4462 36.1441 53.4797 36.1762C53.4959 36.1915 53.5088 36.21 53.5177 36.2305C53.5265 36.251 53.5311 36.2731 53.5312 36.2954C53.531 36.3421 53.5125 36.3868 53.4797 36.4201C53.4309 36.4716 53.3659 36.5366 53.2873 36.6125C53.2087 36.6884 53.057 36.8103 52.8429 36.981C52.6385 37.1432 52.425 37.2934 52.2033 37.4309C51.9693 37.5722 51.7225 37.6911 51.4662 37.7859C51.2163 37.8873 50.9499 37.9415 50.6803 37.9458C50.4997 37.9455 50.3206 37.9125 50.1518 37.8483C49.9429 37.7596 49.7565 37.6251 49.6065 37.4549C49.4564 37.2846 49.3464 37.0829 49.2846 36.8645C49.0828 36.2417 49.0108 35.584 49.0732 34.9323C49.0719 34.9161 49.0675 34.9003 49.06 34.8859C49.0526 34.8715 49.0423 34.8587 49.0299 34.8482C49.0174 34.8373 49.0027 34.8292 48.9868 34.8245C48.9709 34.8198 48.9541 34.8187 48.9377 34.8212L48.3767 34.8645L47.8808 34.9024L47.4987 34.9296L47.2277 34.9458H47.1274C47.1049 34.949 47.082 34.947 47.0604 34.9399C47.0388 34.9329 47.0191 34.921 47.0028 34.9052C46.9858 34.8898 46.9724 34.8709 46.9636 34.8499C46.9547 34.8288 46.9505 34.8061 46.9513 34.7832C46.9498 34.7377 46.9653 34.6933 46.9946 34.6585C47.0095 34.6417 47.0278 34.6283 47.0485 34.6194C47.0691 34.6105 47.0914 34.6063 47.1139 34.6071H47.2169L47.4879 34.5854L47.8835 34.5583L48.4038 34.5176L48.9919 34.4743C49.0678 34.4743 49.1166 34.4065 49.1356 34.2927C49.1735 34.0217 49.225 33.7507 49.2873 33.5041C49.3471 33.2546 49.4204 33.0085 49.5068 32.7669C49.5735 32.5602 49.6693 32.364 49.7914 32.1843C49.8606 32.0542 49.9785 31.9568 50.1193 31.9133C50.2927 31.8835 50.4309 31.9702 50.5312 32.1843C50.5968 32.4394 50.5902 32.7077 50.5122 32.9594C50.4164 33.4031 50.2896 33.8396 50.1328 34.2656C50.1243 34.292 50.1243 34.3205 50.1328 34.3469C50.137 34.3624 50.1455 34.3765 50.1572 34.3875C50.1678 34.3907 50.1791 34.3907 50.1898 34.3875C51.1834 34.3261 51.9007 34.2954 52.3415 34.2954C52.3644 34.2946 52.3871 34.2988 52.4082 34.3077C52.4292 34.3166 52.4481 34.33 52.4635 34.3469C52.4951 34.3796 52.5126 34.4234 52.5122 34.4688C52.5124 34.491 52.5081 34.5129 52.4997 34.5333C52.4914 34.5538 52.479 34.5724 52.4635 34.5881C52.4482 34.6054 52.4295 34.6192 52.4084 34.6285C52.3874 34.6379 52.3645 34.6426 52.3415 34.6423C51.664 34.6423 50.907 34.6748 50.0705 34.7398C50.0437 34.7343 50.016 34.7343 49.9892 34.7398C49.9713 34.7564 49.9574 34.7768 49.9486 34.7995C49.8402 35.1165 49.6776 35.5501 49.458 36.0976C49.5664 36.8672 49.8402 37.3388 50.2711 37.5068C50.4027 37.5562 50.5423 37.581 50.683 37.58C50.8296 37.5807 50.9756 37.5606 51.1166 37.5203C51.2689 37.4784 51.4176 37.424 51.561 37.3577C51.7079 37.2919 51.8509 37.2177 51.9892 37.1355C52.1193 37.0569 52.2602 36.9702 52.3822 36.8645C52.5041 36.7588 52.6288 36.6829 52.7236 36.5935C52.8185 36.5041 52.9052 36.439 52.9946 36.3604L53.1708 36.1978L53.2412 36.1328C53.2588 36.1242 53.278 36.1193 53.2976 36.1183C53.3172 36.1174 53.3367 36.1205 53.3551 36.1274ZM49.4011 35.3144C49.4391 35.3144 49.4879 35.2358 49.5475 35.0732C49.6071 34.9106 49.6234 34.8157 49.5963 34.7859C49.5695 34.7714 49.5392 34.765 49.5089 34.7674C49.4786 34.7698 49.4496 34.7809 49.4255 34.7995C49.395 34.8473 49.3781 34.9026 49.3767 34.9594C49.3688 35.0396 49.3688 35.1204 49.3767 35.2006C49.3749 35.2692 49.3831 35.3035 49.4011 35.3035V35.3144ZM49.4851 34.2981C49.4689 34.3984 49.4851 34.4472 49.5312 34.4472H49.6369C49.6665 34.446 49.6947 34.434 49.7161 34.4136C49.7376 34.3931 49.7508 34.3656 49.7534 34.3361C50.1491 33.1798 50.3081 32.5203 50.2304 32.3577C50.2268 32.346 50.2202 32.3353 50.2114 32.3267C50.2025 32.3181 50.1916 32.3119 50.1797 32.3087C50.1678 32.3054 50.1553 32.3052 50.1433 32.3081C50.1313 32.311 50.1203 32.3169 50.1112 32.3252C49.9573 32.5441 49.8427 32.788 49.7724 33.0461C49.6379 33.4499 49.5417 33.8654 49.4851 34.2873V34.2981Z" fill="#2B2B2B"/>
<path d="M53.2222 35.6748C53.1838 35.6773 53.1458 35.6653 53.1157 35.6413C53.0857 35.6172 53.0656 35.5828 53.0596 35.5447C53.0475 35.5072 53.0497 35.4666 53.0657 35.4306C53.0817 35.3946 53.1104 35.3657 53.1464 35.3496C53.268 35.2888 53.378 35.2071 53.4716 35.1084C53.4869 35.0922 53.5054 35.0793 53.5259 35.0705C53.5464 35.0616 53.5685 35.057 53.5908 35.0569C53.6363 35.0566 53.6801 35.0741 53.7128 35.1057C53.7292 35.1209 53.7423 35.1394 53.7512 35.1599C53.7602 35.1804 53.7648 35.2026 53.7648 35.2249C53.7648 35.2473 53.7602 35.2695 53.7512 35.29C53.7423 35.3105 53.7292 35.329 53.7128 35.3442C53.5936 35.4675 53.4555 35.5709 53.3035 35.6504C53.2791 35.6657 53.2511 35.6741 53.2222 35.6748V35.6748ZM57.271 36.1382C57.3165 36.1379 57.3603 36.1554 57.393 36.187C57.4096 36.2026 57.4228 36.2215 57.4317 36.2425C57.4406 36.2635 57.4449 36.2861 57.4445 36.309C57.4454 36.3317 57.4417 36.3545 57.4338 36.3759C57.4259 36.3973 57.4139 36.4169 57.3984 36.4336L57.1979 36.626C57.1138 36.7019 56.9621 36.8266 56.7426 36.9973C56.5337 37.1635 56.3147 37.3164 56.0867 37.4553C55.8429 37.5995 55.5851 37.7185 55.3171 37.8103C55.0496 37.9089 54.7675 37.9621 54.4824 37.9675C54.0915 37.9766 53.7092 37.8523 53.3984 37.6152C53.2741 37.5306 53.1794 37.4094 53.1274 37.2683C53.0762 37.1418 53.0513 37.0063 53.0542 36.8699C53.0613 36.7378 53.0831 36.6069 53.1193 36.4797C53.1458 36.3797 53.1774 36.2811 53.2141 36.1843C53.2385 36.1274 53.2575 36.084 53.2764 36.0488C53.3001 36.011 53.3367 35.9831 53.3794 35.9702C53.4005 35.9637 53.4226 35.9616 53.4445 35.9639C53.4664 35.9662 53.4876 35.973 53.5068 35.9837C53.5475 36.0035 53.5787 36.0386 53.5935 36.0813C53.6023 36.1004 53.6068 36.1212 53.6068 36.1423C53.6068 36.1633 53.6023 36.1841 53.5935 36.2033C53.5817 36.236 53.5672 36.2677 53.5502 36.2981C53.5312 36.3415 53.5068 36.4146 53.4743 36.5176C53.4422 36.6124 53.4213 36.7107 53.4119 36.8103C53.4026 36.9087 53.4118 37.008 53.4391 37.103C53.4643 37.1973 53.5206 37.2804 53.5989 37.3388C53.7859 37.4816 54.0059 37.5748 54.2385 37.6098C54.4642 37.6423 54.694 37.6322 54.916 37.58C55.1452 37.5208 55.3677 37.4381 55.58 37.3333C55.7886 37.2344 55.9897 37.1203 56.1816 36.9919C56.3523 36.8753 56.5176 36.7507 56.6775 36.6206C56.8374 36.4905 56.9485 36.393 57.0136 36.3306L57.1437 36.2033C57.1588 36.1837 57.1781 36.1678 57.2001 36.1565C57.2221 36.1453 57.2463 36.139 57.271 36.1382V36.1382Z" fill="#2B2B2B"/>
<path d="M62.8212 36.2439C62.8436 36.2435 62.8658 36.2479 62.8864 36.2567C62.907 36.2656 62.9254 36.2788 62.9405 36.2954C62.9725 36.3289 62.99 36.3737 62.9892 36.42C62.9907 36.4655 62.9752 36.5099 62.9459 36.5447C62.5705 36.9001 62.1345 37.1856 61.6586 37.3875C61.1788 37.6189 60.652 37.7367 60.1193 37.7317C59.7256 37.7451 59.3404 37.6151 59.0353 37.3658C59.0225 37.3514 59.0065 37.34 58.9887 37.3325C58.9709 37.325 58.9517 37.3216 58.9323 37.3225C58.9129 37.3234 58.8939 37.3284 58.8766 37.3373C58.8593 37.3462 58.8441 37.3587 58.8321 37.374C58.6939 37.55 58.5294 37.7036 58.3443 37.8293C58.2275 37.9068 58.0914 37.95 57.9513 37.9539C57.8423 37.9547 57.7356 37.9226 57.6451 37.8618L57.6261 37.8428C57.518 37.7404 57.4323 37.6167 57.3741 37.4797C57.3109 37.344 57.2645 37.2011 57.2359 37.0542C57.2142 36.9187 57.1979 36.7832 57.1871 36.626C57.1808 36.5204 57.1808 36.4145 57.1871 36.3089C57.1871 36.2493 57.1871 36.1978 57.2006 36.1599C57.2016 36.137 57.2077 36.1147 57.2185 36.0945C57.2292 36.0743 57.2445 36.0568 57.263 36.0433C57.2979 36.0171 57.3413 36.0046 57.3849 36.0081C57.4301 36.0138 57.4716 36.036 57.5014 36.0704C57.5158 36.0871 57.5266 36.1065 57.5331 36.1275C57.5396 36.1485 57.5418 36.1706 57.5394 36.1924C57.5194 36.4429 57.5294 36.6949 57.5692 36.9431C57.5883 37.1799 57.6833 37.4042 57.8402 37.5826C57.9676 37.6477 58.1275 37.5826 58.3226 37.4173C58.4664 37.2875 58.5922 37.1389 58.6966 36.9756C58.7047 36.9547 58.7047 36.9315 58.6966 36.9106C58.6157 36.7518 58.5669 36.5787 58.5529 36.4011C58.5348 36.2515 58.5662 36.1002 58.6424 35.9702C58.6685 35.9301 58.7023 35.8956 58.7419 35.8686C58.7814 35.8416 58.8259 35.8227 58.8727 35.813C58.9647 35.792 59.0611 35.8055 59.1437 35.8509C59.2027 35.8775 59.2533 35.9197 59.2901 35.9729C59.3265 36.0253 59.3455 36.0879 59.3443 36.1517C59.337 36.4193 59.2614 36.6805 59.1248 36.9106C59.1194 36.9319 59.1194 36.9543 59.1248 36.9756L59.1573 37.0081C59.2789 37.1378 59.4278 37.2389 59.5932 37.3041C59.7587 37.3692 59.9365 37.3968 60.1139 37.3848C60.5952 37.3845 61.0703 37.2762 61.5042 37.0677C61.9429 36.8865 62.3437 36.6245 62.6857 36.2954C62.703 36.2772 62.7242 36.2632 62.7476 36.2543C62.7711 36.2454 62.7962 36.2418 62.8212 36.2439V36.2439ZM58.9459 36.4905C58.9918 36.3884 59.014 36.2772 59.0109 36.1653C59.0071 36.1576 59.0014 36.1511 58.9942 36.1463C58.9871 36.1415 58.9788 36.1387 58.9703 36.1382C58.9626 36.1381 58.955 36.1401 58.9484 36.1439C58.9417 36.1477 58.9362 36.1532 58.9323 36.1599C58.8888 36.265 58.8839 36.3822 58.9188 36.4905H58.9351C58.9351 36.4905 58.9459 36.4959 58.9459 36.4905Z" fill="#2B2B2B"/>
<path d="M68.0216 36.2114C68.0438 36.2134 68.0654 36.22 68.0849 36.2307C68.1045 36.2414 68.1217 36.2561 68.1354 36.2737C68.1503 36.2911 68.1614 36.3114 68.168 36.3333C68.1745 36.3553 68.1763 36.3784 68.1733 36.4011C68.1721 36.4242 68.1656 36.4467 68.1543 36.4669C68.143 36.4871 68.1273 36.5044 68.1083 36.5176C68.0432 36.5691 67.9619 36.6314 67.8671 36.6992C67.7722 36.7669 67.5961 36.8862 67.3251 37.0488C67.0632 37.2082 66.7917 37.3512 66.5121 37.477C66.1947 37.6146 65.8666 37.7261 65.531 37.8103C65.1775 37.9057 64.8132 37.9558 64.447 37.9593C64.0097 37.9656 63.5755 37.8836 63.1706 37.7181C63.0512 37.6738 62.9396 37.6106 62.84 37.5312C62.7629 37.4723 62.6952 37.4019 62.6394 37.3225C62.5967 37.2569 62.5655 37.1845 62.5473 37.1084C62.5277 37.0443 62.5186 36.9775 62.5202 36.9106C62.5234 36.8532 62.5307 36.7962 62.5419 36.7398C62.6038 36.5124 62.7211 36.3038 62.8833 36.1328C63.0502 35.9398 63.2526 35.7806 63.4796 35.664C63.6593 35.5608 63.863 35.5066 64.0703 35.5068C64.1267 35.5061 64.1826 35.5168 64.2348 35.5382C64.2869 35.5597 64.3342 35.5913 64.3739 35.6314C64.4572 35.7125 64.5074 35.8216 64.5148 35.9377C64.5162 36.0562 64.4834 36.1726 64.4205 36.273C64.3575 36.3734 64.267 36.4536 64.1598 36.5041C63.799 36.7329 63.3745 36.8402 62.9484 36.8103C62.939 36.8063 62.9288 36.8042 62.9186 36.8042C62.9083 36.8042 62.8982 36.8063 62.8888 36.8103C62.8808 36.816 62.8747 36.8239 62.8714 36.8331C62.868 36.8423 62.8674 36.8523 62.8698 36.8618C62.8373 37.084 62.9809 37.2602 63.3007 37.3848C63.5914 37.5043 63.9001 37.574 64.214 37.5908C64.5192 37.6108 64.8258 37.5945 65.1272 37.542C65.4227 37.4864 65.7128 37.4057 65.9945 37.3008C66.2552 37.2073 66.5096 37.0968 66.756 36.9702C66.9646 36.8591 67.1706 36.7425 67.3684 36.6179C67.5663 36.4932 67.7018 36.4065 67.7722 36.3469C67.8427 36.2873 67.8969 36.2547 67.9267 36.2276C67.9561 36.2132 67.989 36.2076 68.0216 36.2114V36.2114ZM63.0649 36.4146C63.008 36.4905 63.0324 36.5257 63.1381 36.5176C63.383 36.4837 63.6194 36.4037 63.8346 36.2818L63.9457 36.2168C64.0812 36.1274 64.1435 36.0434 64.1354 35.9702C64.135 35.9359 64.1236 35.9026 64.1029 35.8753C64.0782 35.8576 64.0491 35.8473 64.0188 35.8455C63.8451 35.8463 63.6755 35.8982 63.531 35.9946C63.3457 36.1014 63.1835 36.2443 63.0541 36.4146H63.0649Z" fill="#2B2B2B"/>
</svg>
